<svg width="79" height="63" viewBox="0 0 79 63" fill="none" xmlns="http://www.w3.org/2000/svg">
<path d="M76.7813 43.3125H74.8125V30.0111C74.8125 28.4485 74.185 26.9473 73.0776 25.8399L60.7852 13.5475C59.6778 12.44 58.1766 11.8125 56.6139 11.8125H51.1875V5.90625C51.1875 2.64551 48.542 0 45.2813 0H5.90625C2.64551 0 0 2.64551 0 5.90625V45.2813C0 48.542 2.64551 51.1875 5.90625 51.1875H7.875C7.875 57.709 13.166 63 19.6875 63C26.209 63 31.5 57.709 31.5 51.1875H47.25C47.25 57.709 52.541 63 59.0625 63C65.584 63 70.875 57.709 70.875 51.1875H76.7813C77.8641 51.1875 78.75 50.3016 78.75 49.2188V45.2813C78.75 44.1985 77.8641 43.3125 76.7813 43.3125ZM19.6875 57.0938C16.4268 57.0938 13.7813 54.4483 13.7813 51.1875C13.7813 47.9268 16.4268 45.2813 19.6875 45.2813C22.9483 45.2813 25.5938 47.9268 25.5938 51.1875C25.5938 54.4483 22.9483 57.0938 19.6875 57.0938ZM37.4063 26.5781C37.4063 27.1195 36.9633 27.5625 36.4219 27.5625H29.5313V34.4531C29.5313 34.9945 29.0883 35.4375 28.5469 35.4375H22.6406C22.0992 35.4375 21.6563 34.9945 21.6563 34.4531V27.5625H14.7656C14.2242 27.5625 13.7813 27.1195 13.7813 26.5781V20.6719C13.7813 20.1305 14.2242 19.6875 14.7656 19.6875H21.6563V12.7969C21.6563 12.2555 22.0992 11.8125 22.6406 11.8125H28.5469C29.0883 11.8125 29.5313 12.2555 29.5313 12.7969V19.6875H36.4219C36.9633 19.6875 37.4063 20.1305 37.4063 20.6719V26.5781ZM59.0625 57.0938C55.8018 57.0938 53.1563 54.4483 53.1563 51.1875C53.1563 47.9268 55.8018 45.2813 59.0625 45.2813C62.3233 45.2813 64.9688 47.9268 64.9688 51.1875C64.9688 54.4483 62.3233 57.0938 59.0625 57.0938ZM68.9063 31.5H51.1875V17.7188H56.6139L68.9063 30.0111V31.5Z" fill="black"/>
</svg>
