<svg width="82" height="74" viewBox="0 0 82 74" fill="none" xmlns="http://www.w3.org/2000/svg">
<path d="M41 41.6875C43.5888 41.6875 45.6875 39.5888 45.6875 37C45.6875 34.4112 43.5888 32.3125 41 32.3125C38.4112 32.3125 36.3125 34.4112 36.3125 37C36.3125 39.5888 38.4112 41.6875 41 41.6875Z" fill="#FFFDFD"/>
<path d="M61.9366 41.2969L61.8907 41.2598L58.8086 38.8428C58.6135 38.6884 58.4577 38.4899 58.3541 38.2636C58.2506 38.0373 58.2022 37.7896 58.2129 37.541V36.4121C58.2032 36.1651 58.2521 35.9192 58.3559 35.6948C58.4596 35.4703 58.6151 35.2737 58.8096 35.1211L61.8907 32.7031L61.9366 32.666C62.4117 32.2702 62.7306 31.7182 62.8362 31.1089C62.9417 30.4995 62.8271 29.8724 62.5127 29.3398L58.3418 22.123C58.337 22.1162 58.3328 22.1091 58.3291 22.1016C58.0131 21.5763 57.5231 21.1784 56.9442 20.9768C56.3653 20.7752 55.7341 20.7827 55.1602 20.998L55.126 21.0107L51.503 22.4687C51.2743 22.5612 51.0269 22.598 50.7812 22.5761C50.5356 22.5542 50.2986 22.4742 50.0899 22.3428C49.7696 22.141 49.4441 21.9502 49.1133 21.7705C48.8989 21.6542 48.7148 21.4892 48.5759 21.2887C48.4369 21.0882 48.3471 20.8578 48.3135 20.6162L47.7676 16.75L47.7559 16.6797C47.6371 16.0809 47.3157 15.5412 46.8459 15.1514C46.376 14.7615 45.7863 14.5453 45.1758 14.5391H36.8243C36.2052 14.541 35.6067 14.7614 35.1341 15.1614C34.6616 15.5614 34.3454 16.1153 34.2413 16.7256L34.2325 16.7803L33.6885 20.6543C33.6552 20.8952 33.566 21.125 33.4282 21.3254C33.2903 21.5258 33.1076 21.6913 32.8946 21.8086C32.5606 21.9883 32.2344 22.1787 31.918 22.377C31.7097 22.5076 31.4733 22.587 31.2283 22.6085C30.9834 22.6301 30.7368 22.5932 30.5088 22.501L26.8829 21.0361L26.8487 21.0225C26.2739 20.8069 25.6418 20.7997 25.0623 21.002C24.4827 21.2043 23.9925 21.6034 23.6768 22.1299L23.6641 22.1514L19.4874 29.373C19.1725 29.9062 19.0576 30.5339 19.1632 31.144C19.2688 31.7541 19.5879 32.3067 20.0635 32.7031L20.1094 32.7402L23.1915 35.1572C23.3866 35.3116 23.5424 35.5101 23.6459 35.7364C23.7495 35.9627 23.7979 36.2104 23.7872 36.459V37.5879C23.7969 37.8349 23.7479 38.0808 23.6442 38.3052C23.5405 38.5297 23.385 38.7263 23.1905 38.8789L20.1094 41.2969L20.0635 41.334C19.5884 41.7298 19.2695 42.2818 19.1639 42.8911C19.0584 43.5005 19.173 44.1276 19.4874 44.6602L23.6583 51.877C23.6631 51.8838 23.6673 51.8909 23.6709 51.8984C23.987 52.4237 24.477 52.8216 25.0559 53.0232C25.6348 53.2248 26.266 53.2173 26.8399 53.002L26.8741 52.9893L30.4942 51.5312C30.7229 51.4388 30.9702 51.402 31.2159 51.4239C31.4616 51.4458 31.6986 51.5258 31.9073 51.6572C32.2276 51.8597 32.5531 52.0505 32.8838 52.2295C33.0983 52.3458 33.2824 52.5108 33.4213 52.7113C33.5602 52.9118 33.6501 53.1422 33.6836 53.3838L34.2266 57.25L34.2383 57.3203C34.3574 57.9201 34.6796 58.4605 35.1506 58.8505C35.6217 59.2404 36.2128 59.456 36.8243 59.4609H45.1758C45.7949 59.459 46.3934 59.2386 46.8659 58.8386C47.3385 58.4386 47.6547 57.8847 47.7588 57.2744L47.7676 57.2197L48.3116 53.3457C48.3455 53.1043 48.4354 52.8742 48.5741 52.6738C48.7128 52.4734 48.8964 52.3082 49.1104 52.1914C49.4444 52.0117 49.7706 51.8213 50.087 51.623C50.2953 51.4924 50.5317 51.413 50.7766 51.3915C51.0216 51.3699 51.2682 51.4068 51.4961 51.499L55.1221 52.959L55.1563 52.9727C55.731 53.1886 56.3633 53.196 56.9429 52.9937C57.5225 52.7913 58.0128 52.392 58.3282 51.8652C58.332 51.8579 58.3363 51.8507 58.3409 51.8438L62.5118 44.6279C62.8272 44.0949 62.9425 43.4669 62.8371 42.8566C62.7317 42.2462 62.4125 41.6933 61.9366 41.2969ZM48.8038 37.3672C48.7326 38.8795 48.2237 40.3385 47.3387 41.5669C46.4537 42.7953 45.2309 43.74 43.819 44.2863C42.407 44.8327 40.8668 44.9569 39.3855 44.6441C37.9042 44.3312 36.5457 43.5947 35.4753 42.5241C34.4048 41.4536 33.6685 40.095 33.3558 38.6137C33.0431 37.1324 33.1676 35.5921 33.7141 34.1802C34.2606 32.7683 35.2055 31.5457 36.434 30.6608C37.6624 29.776 39.1215 29.2672 40.6338 29.1963C41.7195 29.1485 42.8033 29.3271 43.8162 29.7209C44.8292 30.1146 45.7491 30.7148 46.5175 31.4833C47.2859 32.2518 47.886 33.1718 48.2796 34.1847C48.6732 35.1977 48.8517 36.2815 48.8038 37.3672Z" fill="#FFFDFD"/>
</svg>
