<svg width="25" height="463" viewBox="0 0 25 463" fill="none" xmlns="http://www.w3.org/2000/svg">
<path d="M24.0535 22.0498L5.9334 40.1698C5.05948 41.0437 3.64265 41.0437 2.76883 40.1698L0.655414 38.0564C-0.217009 37.184 -0.218687 35.77 0.651684 34.8956L15.0122 20.4674L0.651684 6.03943C-0.218687 5.16496 -0.217009 3.75101 0.655414 2.87859L2.76883 0.765177C3.64274 -0.108737 5.05957 -0.108737 5.9334 0.765177L24.0534 18.8852C24.9273 19.759 24.9273 21.1759 24.0535 22.0498Z" fill="black"/>
<path d="M24.3447 21.94L6.22453 40.0601C5.35062 40.934 3.93378 40.934 3.05996 40.0601L0.946551 37.9467C0.0741291 37.0742 0.0724512 35.6603 0.942822 34.7858L15.3033 20.3577L0.942822 5.92969C0.0724512 5.05521 0.0741291 3.64127 0.946551 2.76885L3.05996 0.655435C3.93388 -0.218479 5.35071 -0.218479 6.22453 0.655435L24.3446 18.7755C25.2185 19.6493 25.2185 21.0661 24.3447 21.94Z" fill="black"/>
<path d="M24.0535 122.05L5.9334 140.17C5.05948 141.044 3.64265 141.044 2.76883 140.17L0.655414 138.056C-0.217009 137.184 -0.218687 135.77 0.651684 134.896L15.0122 120.467L0.651684 106.039C-0.218687 105.165 -0.217009 103.751 0.655414 102.879L2.76883 100.765C3.64274 99.8913 5.05957 99.8913 5.9334 100.765L24.0534 118.885C24.9273 119.759 24.9273 121.176 24.0535 122.05Z" fill="black"/>
<path d="M24.3447 121.94L6.22453 140.06C5.35062 140.934 3.93378 140.934 3.05996 140.06L0.946551 137.947C0.0741291 137.074 0.0724512 135.66 0.942822 134.786L15.3033 120.358L0.942822 105.93C0.0724512 105.055 0.0741291 103.641 0.946551 102.769L3.05996 100.655C3.93388 99.7815 5.35071 99.7815 6.22453 100.655L24.3446 118.775C25.2185 119.649 25.2185 121.066 24.3447 121.94Z" fill="black"/>
<path d="M24.3447 228.94L6.22453 247.06C5.35062 247.934 3.93378 247.934 3.05996 247.06L0.946551 244.947C0.0741291 244.074 0.0724512 242.66 0.942822 241.786L15.3033 227.358L0.942822 212.93C0.0724512 212.055 0.0741291 210.641 0.946551 209.769L3.05996 207.655C3.93388 206.782 5.35071 206.782 6.22453 207.655L24.3446 225.775C25.2185 226.649 25.2185 228.066 24.3447 228.94Z" fill="black"/>
<path d="M24.3447 443.94L6.22453 462.06C5.35062 462.934 3.93378 462.934 3.05996 462.06L0.946551 459.947C0.0741291 459.074 0.0724512 457.66 0.942822 456.786L15.3033 442.358L0.942822 427.93C0.0724512 427.055 0.0741291 425.641 0.946551 424.769L3.05996 422.655C3.93388 421.782 5.35071 421.782 6.22453 422.655L24.3446 440.775C25.2185 441.649 25.2185 443.066 24.3447 443.94Z" fill="black"/>
<path d="M24.0535 333.05L5.9334 351.17C5.05948 352.044 3.64265 352.044 2.76883 351.17L0.655414 349.056C-0.217009 348.184 -0.218687 346.77 0.651684 345.896L15.0122 331.467L0.651684 317.039C-0.218687 316.165 -0.217009 314.751 0.655414 313.879L2.76883 311.765C3.64274 310.891 5.05957 310.891 5.9334 311.765L24.0534 329.885C24.9273 330.759 24.9273 332.176 24.0535 333.05Z" fill="black"/>
</svg>
