<svg width="75" height="75" viewBox="0 0 75 75" fill="none" xmlns="http://www.w3.org/2000/svg">
<path d="M72.8611 52.9976L56.4546 45.9663C55.7537 45.6676 54.9748 45.6046 54.235 45.7869C53.4953 45.9692 52.8348 46.3869 52.353 46.977L45.0872 55.8541C33.6843 50.4778 24.5076 41.301 19.1312 29.8981L28.0083 22.6324C28.5996 22.1514 29.0182 21.4909 29.2006 20.7508C29.3829 20.0107 29.3192 19.2314 29.0191 18.5307L21.9877 2.1242C21.6583 1.36892 21.0756 0.752267 20.3402 0.380561C19.6048 0.00885535 18.7628 -0.0946019 17.9593 0.0880288L2.72466 3.60371C1.94999 3.7826 1.25883 4.21878 0.763981 4.84107C0.269133 5.46335 -0.000178452 6.23499 8.87155e-08 7.03004C8.87155e-08 44.6039 30.4546 75 67.9699 75C68.7652 75.0005 69.5372 74.7313 70.1598 74.2364C70.7824 73.7416 71.2188 73.0502 71.3977 72.2753L74.9134 57.0407C75.0949 56.2333 74.9892 55.3879 74.6146 54.6499C74.2401 53.912 73.62 53.3277 72.8611 52.9976Z" fill="black"/>
</svg>
