<svg width="31" height="50" viewBox="0 0 31 50" fill="none" xmlns="http://www.w3.org/2000/svg">
<path d="M29.4592 27.005L7.26683 49.1973C6.19652 50.2676 4.46127 50.2676 3.39107 49.1973L0.802707 46.6089C-0.265778 45.5404 -0.267833 43.8087 0.79814 42.7377L18.3859 25.0671L0.79814 7.39663C-0.267833 6.32563 -0.265778 4.59393 0.802707 3.52544L3.39107 0.937075C4.46139 -0.133237 6.19663 -0.133237 7.26683 0.937075L29.459 23.1293C30.5294 24.1995 30.5294 25.9347 29.4592 27.005Z" fill="black"/>
<path d="M29.8157 26.8707L7.62337 49.0629C6.55306 50.1332 4.81781 50.1332 3.74761 49.0629L1.15925 46.4746C0.0907613 45.4061 0.0887062 43.6744 1.15468 42.6034L18.7425 24.9328L1.15468 7.26229C0.0887062 6.19129 0.0907613 4.45959 1.15925 3.3911L3.74761 0.802734C4.81793 -0.267578 6.55317 -0.267578 7.62337 0.802734L29.8156 22.995C30.8859 24.0651 30.8859 25.8004 29.8157 26.8707Z" fill="black"/>
</svg>
