<svg width="82" height="74" viewBox="0 0 82 74" fill="none" xmlns="http://www.w3.org/2000/svg">
<path d="M41.5431 21.8914C41.3977 21.7523 41.2043 21.6747 41.0031 21.6747C40.8018 21.6747 40.6084 21.7523 40.463 21.8914L22.4845 39.0662C22.4081 39.1392 22.3474 39.227 22.3059 39.3242C22.2645 39.4214 22.2432 39.526 22.2433 39.6316L22.2404 55.7508C22.2404 56.5796 22.5696 57.3744 23.1556 57.9605C23.7417 58.5465 24.5366 58.8758 25.3654 58.8758H34.7501C35.1645 58.8758 35.5619 58.7111 35.855 58.4181C36.148 58.1251 36.3126 57.7277 36.3126 57.3133V44.032C36.3126 43.8248 36.3949 43.6261 36.5414 43.4796C36.688 43.3331 36.8867 43.2508 37.0939 43.2508H44.9064C45.1136 43.2508 45.3123 43.3331 45.4588 43.4796C45.6053 43.6261 45.6876 43.8248 45.6876 44.032V57.3133C45.6876 57.7277 45.8522 58.1251 46.1453 58.4181C46.4383 58.7111 46.8357 58.8758 47.2501 58.8758H56.631C57.4598 58.8758 58.2546 58.5465 58.8407 57.9605C59.4267 57.3744 59.756 56.5796 59.756 55.7508V39.6316C59.7561 39.526 59.7348 39.4214 59.6933 39.3242C59.6519 39.227 59.5911 39.1392 59.5148 39.0662L41.5431 21.8914Z" fill="white"/>
<path d="M63.9407 35.8428L56.636 28.8545V18.25C56.636 17.8356 56.4714 17.4382 56.1784 17.1451C55.8853 16.8521 55.4879 16.6875 55.0735 16.6875H50.386C49.9716 16.6875 49.5742 16.8521 49.2812 17.1451C48.9881 17.4382 48.8235 17.8356 48.8235 18.25V21.375L43.1673 15.9668C42.638 15.4316 41.8509 15.125 41.0003 15.125C40.1526 15.125 39.3675 15.4316 38.8382 15.9678L18.0667 35.8408C17.4593 36.4268 17.3831 37.3907 17.9358 38.0254C18.0746 38.1856 18.2446 38.3159 18.4353 38.4084C18.6261 38.5009 18.8337 38.5535 19.0454 38.5632C19.2572 38.5729 19.4687 38.5394 19.6671 38.4647C19.8655 38.3901 20.0467 38.2758 20.1995 38.1289L40.4632 18.7656C40.6086 18.6265 40.802 18.5489 41.0032 18.5489C41.2044 18.5489 41.3979 18.6265 41.5432 18.7656L61.8089 38.1289C62.1074 38.4152 62.5072 38.5714 62.9208 38.5634C63.3343 38.5553 63.7278 38.3837 64.0149 38.086C64.6145 37.4649 64.5647 36.4395 63.9407 35.8428Z" fill="white"/>
</svg>
