<svg width="84" height="75" viewBox="0 0 84 75" fill="none" xmlns="http://www.w3.org/2000/svg">
<path d="M39.5287 21.0433L47.443 23.1287C47.7117 23.1915 47.9522 23.3414 48.1271 23.555C48.3019 23.7686 48.4013 24.034 48.4098 24.3099C48.4098 24.9807 47.8134 25.5349 47.0798 25.5349H41.8883C41.3288 25.5333 40.7749 25.4243 40.2564 25.2141C39.4923 24.8932 38.6115 24.9661 38.0252 25.5057L35.2545 28.0577C35.1263 28.1699 35.0157 28.3007 34.9263 28.4456C34.812 28.6333 34.7358 28.8417 34.7024 29.0589C34.6689 29.2761 34.6787 29.4978 34.7313 29.7111C34.7839 29.9245 34.8782 30.1254 35.0088 30.3021C35.1394 30.4789 35.3037 30.628 35.4922 30.741C37.0266 31.6619 38.7446 32.2344 40.5248 32.4181V34.9993C40.5248 36.2826 41.6666 37.3325 43.0578 37.3325H45.5909C46.9836 37.3325 48.1254 36.2826 48.1254 34.9993V32.4326C52.9276 31.9077 56.5603 27.9119 55.9274 23.2453C55.468 19.8912 52.652 17.2226 49.1375 16.2892L41.2233 14.2039C40.9545 14.141 40.714 13.9911 40.5392 13.7775C40.3643 13.5639 40.2649 13.2985 40.2564 13.0226C40.2564 12.3518 40.8529 11.7977 41.5864 11.7977H46.778C47.3394 11.7985 47.8954 11.9075 48.4156 12.1185C49.1783 12.4393 50.0606 12.3664 50.6468 11.8268L53.4176 9.2748C53.5415 9.16502 53.6482 9.0372 53.7341 8.89565C53.8494 8.70807 53.9265 8.49949 53.9608 8.28196C53.9951 8.06443 53.9859 7.84226 53.9339 7.62829C53.8818 7.41432 53.7878 7.21279 53.6574 7.03534C53.527 6.85789 53.3627 6.70804 53.1741 6.59444C51.6391 5.67358 49.9206 5.10107 48.14 4.9174V2.33328C48.14 1.04998 46.9996 0 45.607 0H43.0739C41.6812 0 40.5408 1.04998 40.5408 2.33328V4.8999C35.7445 5.42489 32.1045 9.42063 32.7374 14.0872C33.1953 17.4413 36.0201 20.11 39.5287 21.0433ZM82.4335 47.8469C80.7127 46.2865 78.0294 46.3886 76.2211 47.8469L62.7464 58.6238C61.0923 59.9507 59.0337 60.6713 56.9132 60.6654H39.6658C39.047 60.6654 38.4535 60.4196 38.0159 59.982C37.5784 59.5444 37.3325 58.9509 37.3325 58.3321C37.3325 57.7133 37.5784 57.1198 38.0159 56.6822C38.4535 56.2446 39.047 55.9988 39.6658 55.9988H51.0829C53.4016 55.9988 55.5613 54.4093 55.9317 52.1197C55.9774 51.8568 55.9999 51.5904 55.9988 51.3235C55.9965 50.0874 55.5038 48.9027 54.6289 48.0294C53.754 47.1561 52.5684 46.6657 51.3322 46.6657H27.9994C24.0643 46.6667 20.2492 48.0203 17.1934 50.4996L10.4123 55.9988H2.33328C1.71446 55.9988 1.12098 56.2446 0.683403 56.6822C0.245827 57.1198 0 57.7133 0 58.3321L0 72.3318C0 72.9506 0.245827 73.5441 0.683403 73.9817C1.12098 74.4193 1.71446 74.6651 2.33328 74.6651H54.3611C56.481 74.6667 58.5382 73.9467 60.1944 72.6235L82.2483 54.978C82.7788 54.5537 83.2102 54.0187 83.5125 53.4103C83.8148 52.8019 83.9807 52.1349 83.9984 51.4558C84.0162 50.7767 83.8855 50.1019 83.6155 49.4786C83.3454 48.8553 82.9425 48.2984 82.4349 47.8469H82.4335Z" fill="black"/>
</svg>
