<svg width="82" height="74" viewBox="0 0 82 74" fill="none" xmlns="http://www.w3.org/2000/svg">
<path d="M48.4844 18.3066C46.584 16.2549 43.9297 15.125 41 15.125C38.0547 15.125 35.3916 16.248 33.5 18.2871C31.5879 20.3486 30.6562 23.1504 30.875 26.1758C31.3086 32.1445 35.8506 37 41 37C46.1494 37 50.6836 32.1455 51.124 26.1777C51.3457 23.1797 50.4082 20.3838 48.4844 18.3066Z" fill="white"/>
<path d="M58.1877 58.875H23.8128C23.3628 58.8808 22.9172 58.7863 22.5084 58.5983C22.0996 58.4103 21.7379 58.1335 21.4495 57.7881C20.8147 57.0293 20.5588 55.9932 20.7483 54.9453C21.5725 50.373 24.1448 46.5322 28.1878 43.8359C31.7795 41.4424 36.3294 40.125 41.0003 40.125C45.6712 40.125 50.221 41.4434 53.8128 43.8359C57.8557 46.5312 60.428 50.3721 61.2522 54.9443C61.4417 55.9922 61.1858 57.0283 60.551 57.7871C60.2627 58.1327 59.901 58.4097 59.4922 58.5979C59.0834 58.7861 58.6378 58.8807 58.1877 58.875Z" fill="white"/>
</svg>
