<svg width="75" height="75" viewBox="0 0 75 75" fill="none" xmlns="http://www.w3.org/2000/svg">
<path d="M37.482 2.22677C37.6262 2.91524 40.3846 16.0695 40.3846 21.0939C40.3846 28.755 35.3726 34.2189 27.9627 36.4161L30.2885 71.294C30.4147 73.3008 28.4495 75 25.9615 75H14.4231C11.9531 75 9.96995 73.3154 10.0962 71.294L12.4219 36.4161C4.99399 34.2189 0 28.7404 0 21.0939C0 16.0549 2.75841 2.91524 2.90264 2.22677C3.47957 -0.746859 11.0697 -0.790804 11.5385 2.3879V23.0714C11.7728 23.5695 14.2608 23.5402 14.4231 23.0714C14.6755 19.3654 15.8474 2.68087 15.8654 2.30001C16.4603 -0.746859 23.9243 -0.746859 24.5012 2.30001C24.5373 2.69551 25.6911 19.3654 25.9435 23.0714C26.1058 23.5402 28.6118 23.5695 28.8281 23.0714V2.3879C29.2969 -0.776156 36.905 -0.746859 37.482 2.22677ZM58.9724 44.0772L56.268 71.1914C56.0517 73.2422 58.0529 75 60.5769 75H70.6731C73.0709 75 75 73.4326 75 71.4844V3.51582C75 1.58224 73.0709 0.000209363 70.6731 0.000209363C55.7993 0.000209363 30.7572 26.1476 58.9724 44.0772Z" fill="black"/>
</svg>
