<svg width="44" height="50" viewBox="0 0 44 50" fill="none" xmlns="http://www.w3.org/2000/svg">
<path d="M19.6836 48.9912C3.08163 28.421 0 26.3099 0 18.75C0 8.39463 9.82203 0 21.9382 0C34.0544 0 43.8764 8.39463 43.8764 18.75C43.8764 26.3099 40.7948 28.421 24.1928 48.9912C23.1033 50.3363 20.773 50.3362 19.6836 48.9912ZM21.9382 26.5625C26.9866 26.5625 31.0791 23.0647 31.0791 18.75C31.0791 14.4353 26.9866 10.9375 21.9382 10.9375C16.8898 10.9375 12.7973 14.4353 12.7973 18.75C12.7973 23.0647 16.8898 26.5625 21.9382 26.5625Z" fill="#FF0000"/>
</svg>
