<svg width="75" height="71" viewBox="0 0 75 71" fill="none" xmlns="http://www.w3.org/2000/svg">
<path d="M67.9688 14.0625H56.25V7.03125C56.25 3.14941 53.1006 0 49.2188 0H25.7812C21.8994 0 18.75 3.14941 18.75 7.03125V14.0625H7.03125C3.14941 14.0625 0 17.2119 0 21.0938V63.2812C0 67.1631 3.14941 70.3125 7.03125 70.3125H67.9688C71.8506 70.3125 75 67.1631 75 63.2812V21.0938C75 17.2119 71.8506 14.0625 67.9688 14.0625ZM28.125 9.375H46.875V14.0625H28.125V9.375ZM51.5625 45.7031C51.5625 46.3477 51.0352 46.875 50.3906 46.875H42.1875V55.0781C42.1875 55.7227 41.6602 56.25 41.0156 56.25H33.9844C33.3398 56.25 32.8125 55.7227 32.8125 55.0781V46.875H24.6094C23.9648 46.875 23.4375 46.3477 23.4375 45.7031V38.6719C23.4375 38.0273 23.9648 37.5 24.6094 37.5H32.8125V29.2969C32.8125 28.6523 33.3398 28.125 33.9844 28.125H41.0156C41.6602 28.125 42.1875 28.6523 42.1875 29.2969V37.5H50.3906C51.0352 37.5 51.5625 38.0273 51.5625 38.6719V45.7031Z" fill="black"/>
</svg>
